<?xml version="1.0" encoding="utf-8"?>
<!-- Generator: Adobe Illustrator 28.2.0, SVG Export Plug-In . SVG Version: 6.00 Build 0)  -->
<svg version="1.1" id="Layer_1" xmlns="http://www.w3.org/2000/svg" xmlns:xlink="http://www.w3.org/1999/xlink" x="0px" y="0px"
	 viewBox="0 0 512 512" style="enable-background:new 0 0 512 512;" xml:space="preserve">
<style type="text/css">
	.menu-icon{fill:#231F20;}
</style>
<g>
	<g>
		<line class="menu-icon" x1="24.6" y1="188.2" x2="356.7" y2="188.2"/>
		<path class="menu-icon" d="M356.7,212.8H24.6C11,212.8,0,201.7,0,188.2s11-24.6,24.6-24.6h332.1c13.6,0,24.6,11,24.6,24.6
			S370.2,212.8,356.7,212.8z"/>
	</g>
	<g>
		<line class="menu-icon" x1="24.6" y1="324.8" x2="487.4" y2="324.8"/>
		<path class="menu-icon" d="M487.4,349.4H24.6C11,349.4,0,338.4,0,324.8c0-13.6,11-24.6,24.6-24.6h462.8c13.6,0,24.6,11,24.6,24.6
			C512,338.4,501,349.4,487.4,349.4z"/>
	</g>
</g>
</svg>
