<?xml version="1.0" encoding="utf-8"?>
<!-- Generator: Adobe Illustrator 27.3.1, SVG Export Plug-In . SVG Version: 6.00 Build 0)  -->
<svg version="1.0" id="Layer_1" xmlns="http://www.w3.org/2000/svg" xmlns:xlink="http://www.w3.org/1999/xlink" x="0px" y="0px"
	 viewBox="0 0 2618.3 547.6" enable-background="new 0 0 2618.3 547.6" xml:space="preserve">
<path d="M0,0v547.6h547.6V0H0z M323.8,344.3H216.1V418h-54v-73.8h-31.7v-53.7h31.7V211h-31.7v-53.7h31.7v-27.9h54v27.9h107.7
	c25.8,0,49.1,10.5,66,27.4s27.3,40.2,27.3,66C417.2,302.5,375.4,344.3,323.8,344.3z"/>
<path d="M363.5,250.9c0,22-17.8,39.7-39.7,39.7H216.1v-79.5h107.7C345.7,211.2,363.5,228.9,363.5,250.9z"/>
<path d="M807.3,417.4V143.1h94.4c14.8,0,28.1,3.7,40.1,11c11.9,7.3,21.5,17.2,28.6,29.6c7.1,12.4,10.7,26.1,10.7,41.1
	c0,15.3-3.6,29.1-10.9,41.4c-7.2,12.3-16.9,22.2-28.9,29.5s-25.2,11-39.6,11H848v110.7L807.3,417.4L807.3,417.4z M848.1,266h49.6
	c7.8,0,15-2,21.5-5.9s11.6-9.1,15.5-15.7c3.9-6.5,5.8-13.9,5.8-22.1c0-8.2-1.9-15.6-5.8-22.2c-3.9-6.6-9-11.8-15.5-15.7
	s-13.6-5.8-21.5-5.8h-49.6V266z"/>
<path d="M1155.9,221.5h40.8v195.9h-41l-1.6-28.4c-5.7,10.1-13.5,18.2-23.3,24.3c-9.8,6.1-21.4,9.2-34.7,9.2
	c-14.4,0-27.9-2.7-40.6-8.1c-12.7-5.4-23.8-13-33.4-22.6c-9.6-9.7-17.1-20.8-22.4-33.4c-5.4-12.6-8-26.2-8-40.6
	c0-14,2.6-27.1,7.8-39.5c5.2-12.3,12.5-23.1,21.8-32.4c9.3-9.3,20-16.6,32.2-21.8c12.2-5.2,25.3-7.9,39.3-7.9
	c14.2,0,26.8,3.2,37.7,9.7c10.9,6.5,20,14.7,27.1,24.8L1155.9,221.5z M1095.1,383.1c11.5,0,21.6-2.8,30.2-8.5
	c8.6-5.7,15.3-13.4,20.1-23c4.8-9.7,7.1-20.4,7.1-32.1c0-11.9-2.4-22.7-7.2-32.3c-4.8-9.7-11.5-17.3-20.1-23s-18.6-8.5-30.1-8.5
	c-11.4,0-21.7,2.9-31.2,8.6c-9.4,5.7-16.8,13.5-22.3,23.1c-5.5,9.7-8.2,20.4-8.2,32.1c0,11.9,2.8,22.6,8.5,32.2
	c5.7,9.6,13.2,17.2,22.5,22.9C1073.8,380.3,1084,383.1,1095.1,383.1"/>
<path d="M1359.8,361.8l36.4,19.8c-8.9,12.4-20.2,22.3-33.8,29.8c-13.6,7.4-28.4,11.2-44.4,11.2c-18,0-34.5-4.6-49.3-13.9
	s-26.6-21.7-35.5-37.3c-8.8-15.6-13.2-32.9-13.2-51.8c0-14.4,2.5-27.8,7.6-40.3s12.1-23.4,21.1-32.9c8.9-9.5,19.4-16.9,31.3-22.2
	c11.9-5.4,24.6-8,38-8c15.9,0,30.7,3.7,44.4,11.2c13.6,7.4,24.9,17.4,33.8,30l-36.4,19.8c-5.5-6.5-11.9-11.5-19.2-15
	c-7.3-3.5-14.8-5.2-22.5-5.2c-10.7,0-20.4,2.9-29.1,8.7s-15.5,13.5-20.6,22.9c-5,9.5-7.5,19.8-7.5,31.1c0,11.1,2.5,21.4,7.6,30.9
	s12,17.1,20.7,22.8c8.7,5.7,18.3,8.6,28.9,8.6c8.1,0,15.8-1.8,23.1-5.5C1348.5,372.6,1354.7,367.8,1359.8,361.8"/>
<path d="M1431.5,417.4V221.5h40.8v20.8c6.8-8.1,15.1-14.5,25-19.2s20.5-7.1,32-7.1c14,0,26.8,3.4,38.6,10.1
	c11.8,6.7,21.1,15.6,28,26.7c6.9-11.1,16.2-20,27.7-26.7c11.6-6.7,24.3-10.1,38.3-10.1c14.5,0,27.7,3.5,39.6,10.6
	s21.4,16.5,28.4,28.4c7.1,11.9,10.6,25.1,10.6,39.6v122.8h-40.8V304.9c0-8.6-2.1-16.5-6.3-23.7c-4.2-7.2-9.8-13-16.8-17.4
	c-7.1-4.4-14.9-6.7-23.5-6.7s-16.5,2.1-23.5,6.3c-7.1,4.2-12.7,9.9-16.8,17c-4.2,7.2-6.3,15.3-6.3,24.5v112.5h-40.7V304.9
	c0-9.1-2.1-17.3-6.3-24.5c-4.2-7.2-9.8-12.9-17-17c-7.1-4.2-15-6.3-23.6-6.3c-8.5,0-16.3,2.2-23.4,6.7c-7.1,4.4-12.8,10.3-16.9,17.4
	c-4.2,7.2-6.3,15.1-6.3,23.7v112.5L1431.5,417.4L1431.5,417.4z"/>
<path d="M1862,422.5c-18,0-34.4-4.6-49.3-13.9c-14.8-9.3-26.6-21.7-35.5-37.3c-8.8-15.6-13.2-32.9-13.2-51.8
	c0-14.4,2.5-27.8,7.6-40.3s12.1-23.4,21.1-32.9c8.9-9.5,19.4-16.9,31.2-22.2c11.9-5.4,24.6-8,38-8c15,0,28.8,3.1,41.3,9.3
	s23.2,14.8,32.1,25.7c8.9,10.9,15.4,23.4,19.6,37.6c4.2,14.2,5.4,29.2,3.7,45.2h-151.1c1.7,9,5,17.1,9.9,24.4
	c4.9,7.2,11.2,13,18.8,17.1c7.6,4.2,16.2,6.3,25.6,6.5c9.9,0,19-2.5,27.1-7.4c8.2-5,14.9-11.8,20.1-20.6l41.3,9.6
	c-7.8,17.4-19.7,31.6-35.5,42.6C1899.3,417,1881.6,422.5,1862,422.5 M1806.3,302.6h111.3c-1.3-9.4-4.6-17.9-9.9-25.6
	c-5.3-7.6-11.9-13.7-19.8-18.2s-16.6-6.8-26-6.8c-9.3,0-17.9,2.2-25.8,6.7c-7.9,4.4-14.4,10.5-19.6,18.1
	C1811.5,284.5,1808,293.1,1806.3,302.6"/>
<path d="M2143.5,123.5h40.7v293.9h-40.7v-28.8c-6.4,10.2-14.8,18.4-25.1,24.6c-10.3,6.2-22.4,9.3-36.2,9.3c-14.2,0-27.6-2.7-40-8
	c-12.4-5.4-23.3-12.8-32.8-22.2c-9.5-9.5-16.9-20.4-22.2-32.8c-5.4-12.4-8-25.7-8-40c0-14.2,2.7-27.6,8-40.1
	c5.4-12.5,12.8-23.4,22.2-32.9c9.5-9.5,20.4-16.9,32.8-22.2c12.4-5.4,25.7-8,40-8c13.8,0,25.9,3.1,36.2,9.3
	c10.3,6.2,18.7,14.3,25.1,24.4V123.5z M2082.6,383.1c11.5,0,21.5-2.8,30.2-8.5c8.6-5.7,15.3-13.4,20.1-23c4.8-9.7,7.1-20.4,7.1-32.1
	c0-11.9-2.4-22.7-7.2-32.3c-4.8-9.7-11.5-17.3-20.1-23s-18.6-8.5-30.1-8.5c-11.4,0-21.7,2.9-31.1,8.6c-9.3,5.7-16.8,13.5-22.3,23.1
	c-5.6,9.7-8.3,20.4-8.3,32.1c0,11.9,2.8,22.6,8.5,32.2s13.2,17.2,22.5,22.9C2061.3,380.3,2071.5,383.1,2082.6,383.1"/>
<rect x="2231.3" y="221.5" width="40.8" height="195.9"/>
<path d="M2468,221.5h40.8v195.9h-40.9l-1.6-28.4c-5.8,10.1-13.5,18.2-23.3,24.3c-9.8,6.1-21.4,9.2-34.7,9.2
	c-14.4,0-27.9-2.7-40.6-8.1c-12.7-5.4-23.8-13-33.4-22.6c-9.6-9.7-17.1-20.8-22.4-33.4c-5.4-12.6-8-26.2-8-40.6
	c0-14,2.6-27.1,7.8-39.5c5.2-12.3,12.5-23.1,21.7-32.4c9.3-9.3,20-16.6,32.2-21.8c12.2-5.3,25.3-7.9,39.3-7.9
	c14.2,0,26.8,3.2,37.7,9.7s20,14.7,27.1,24.8L2468,221.5z M2407.3,383.1c11.5,0,21.6-2.8,30.2-8.5c8.6-5.7,15.3-13.4,20.1-23
	c4.8-9.7,7.1-20.4,7.1-32.1c0-11.9-2.4-22.7-7.2-32.3c-4.8-9.7-11.5-17.3-20.1-23s-18.6-8.5-30.1-8.5c-11.4,0-21.7,2.9-31.2,8.6
	c-9.4,5.7-16.8,13.5-22.3,23.1c-5.5,9.7-8.2,20.4-8.2,32.1c0,11.9,2.8,22.6,8.5,32.2s13.2,17.2,22.5,22.9
	C2385.9,380.3,2396.1,383.1,2407.3,383.1"/>
<path fill="#E6E118" d="M2618.3,380c0,20.3-16.4,36.7-36.7,36.7s-36.7-16.4-36.7-36.7c0-20.3,16.4-36.7,36.7-36.7
	C2601.9,343.3,2618.3,359.8,2618.3,380"/>
</svg>
