<?xml version="1.0" encoding="utf-8"?>
<!-- Generator: Adobe Illustrator 27.3.1, SVG Export Plug-In . SVG Version: 6.00 Build 0)  -->
<svg version="1.0" id="Layer_1" xmlns="http://www.w3.org/2000/svg" xmlns:xlink="http://www.w3.org/1999/xlink" x="0px" y="0px"
	 viewBox="0 0 547.6 547.6" enable-background="new 0 0 547.6 547.6" xml:space="preserve">
<path d="M0,0v547.6h547.6V0H0z M323.8,344.3H216.1V418h-54v-73.8h-31.7v-53.7h31.7v-79.5h-31.7v-53.7h31.7v-27.9h54v27.9h107.7
	c25.8,0,49.1,10.5,66,27.4c16.9,16.9,27.3,40.2,27.3,66C417.2,302.5,375.4,344.3,323.8,344.3z"/>
<path d="M363.5,250.9c0,22-17.8,39.7-39.7,39.7H216.1v-79.5h107.7C345.7,211.2,363.5,228.9,363.5,250.9z"/>
<rect x="216.2" y="418" fill="#E6E118" width="54" height="42"/>
</svg>
